<svg width="36" height="36" viewBox="0 0 36 36" fill="none" xmlns="http://www.w3.org/2000/svg">
<g clip-path="url(#clip0_26444_7666)">
<path d="M17.9626 35.28C17.8848 35.2814 17.7926 35.2814 17.7005 35.2814C14.0515 35.2814 10.6646 34.1611 7.86528 32.2459L7.92576 32.2848C5.04288 30.325 2.79216 27.6336 1.41552 24.4728L1.36944 24.3562C0.60048 22.5936 0.11808 20.5474 0.03744 18.396L0.036 18.3643C0.01152 17.9539 -0.00144005 17.473 -0.00144005 16.9906C-0.00144005 15.1344 0.20016 13.3272 0.58464 11.5862L0.5544 11.7518C1.06848 9.40465 1.8288 7.33105 2.8296 5.40145L2.76336 5.54401C3.68784 3.66769 4.8816 2.07073 6.31584 0.727207L6.32448 0.718567L6.1056 6.30865C6.25152 6.12241 6.70224 6.01969 7.45776 6.00049C8.21328 5.98129 8.67744 6.08401 8.85024 6.30865C9.59472 5.07889 10.6906 4.12561 11.9995 3.57985L12.0442 3.56401C13.4021 2.86993 15.0005 2.44081 16.6925 2.39041H16.7098C15.791 3.24001 15.0019 4.21345 14.364 5.28625L14.3309 5.34529C13.6339 6.23665 13.2005 7.36417 13.1674 8.59105V8.59825C13.5173 8.70913 13.9378 8.80273 14.3683 8.86177L14.4101 8.86609C14.9074 8.93905 15.325 8.98897 15.6629 9.01585C16.0008 9.04273 16.4515 9.06913 17.015 9.09505C17.5786 9.12097 17.9136 9.14113 18.0202 9.15553C18.2189 9.22177 18.2818 9.52369 18.2088 10.0613C18.1267 10.6315 17.9107 11.1384 17.5954 11.5675L17.6011 11.5589C17.4974 11.6942 17.3894 11.8152 17.2742 11.9261L17.2728 11.9275C16.9459 12.1925 16.5773 12.4272 16.1827 12.6187L16.1482 12.6331C15.5664 12.9442 14.8925 13.1789 14.1797 13.3042L14.1394 13.3099L14.4446 17.077L11.6798 15.7435C11.5387 16.043 11.4552 16.3958 11.4552 16.7674C11.4552 16.9805 11.4826 17.1864 11.533 17.3837L11.5286 17.3664C11.6669 17.8805 11.9146 18.3254 12.2472 18.6926L12.2443 18.6898C12.5928 19.0642 13.0306 19.3478 13.5259 19.5091L13.5475 19.5149C13.8629 19.6272 14.2258 19.692 14.6059 19.692C14.8018 19.692 14.9947 19.6747 15.1805 19.6416L15.1603 19.6445C15.8933 19.5106 16.547 19.2701 17.1432 18.936L17.1115 18.9533C17.7355 18.6154 18.2894 18.3168 18.7733 18.0576C19.1592 17.8387 19.6214 17.7091 20.1125 17.7091C20.1557 17.7091 20.1989 17.7106 20.2406 17.712H20.2349H20.2651C20.9376 17.712 21.551 17.9611 22.019 18.3715L22.0162 18.3686C22.2811 18.6077 22.4467 18.9518 22.4467 19.3349C22.4467 19.4515 22.4309 19.5638 22.4035 19.6704L22.405 19.6618C22.3915 19.6886 22.3752 19.7251 22.356 19.7712C22.3042 19.8662 22.248 19.9469 22.1846 20.0218L22.1861 20.0203C22.0867 20.1442 21.9686 20.2478 21.8333 20.3256L21.8275 20.3285C21.6461 20.4264 21.4358 20.4984 21.2126 20.5358L21.2011 20.5373C21.0427 20.5661 20.8613 20.5834 20.677 20.5834C20.5373 20.5834 20.399 20.5733 20.2637 20.556L20.2795 20.5574C19.5883 21.7138 18.6091 22.6339 17.4384 23.2344L17.3995 23.2531C16.4707 23.665 15.3864 23.904 14.2474 23.904C13.8888 23.904 13.5374 23.881 13.1918 23.8349L13.2322 23.8392C14.1322 24.5981 15.2179 25.1669 16.4102 25.4693L16.465 25.4808C17.0467 25.6363 17.7134 25.7256 18.4032 25.7256C18.9029 25.7256 19.3925 25.6781 19.8662 25.5888L19.8173 25.596C20.975 25.3656 22.0046 25.007 22.9608 24.5275L22.8902 24.5592C23.868 24.0854 24.7075 23.5037 25.4434 22.8139L25.4376 22.8182C26.0726 22.2322 26.6069 21.5467 27.0187 20.7864L27.0389 20.7446C27.5342 19.728 27.8237 18.5328 27.8237 17.2699C27.8237 17.1446 27.8208 17.0208 27.815 16.897V16.9142C27.7704 15.5549 27.5011 14.2718 27.0418 13.0838L27.0691 13.163C26.7408 12.1867 26.2022 11.3544 25.5053 10.6877L25.5024 10.6862C26.5435 11.1182 27.4421 11.6496 28.2528 12.2861L28.2283 12.2674C28.9123 12.8578 29.4379 13.6109 29.749 14.4691L29.7605 14.5051C29.7821 14.2056 29.7936 13.8571 29.7936 13.5043C29.7936 8.90929 27.7258 4.79665 24.4685 2.04769L24.4454 2.02897C27.8208 2.93617 30.6461 4.90609 32.616 7.54993L32.6448 7.58881C34.5298 10.3378 35.6558 13.7362 35.6558 17.3981C35.6558 17.5694 35.653 17.7408 35.6486 17.9107V17.8862C35.6486 17.9381 35.6501 17.9986 35.6501 18.059C35.6501 19.8115 35.3549 21.4949 34.8106 23.0616L34.8422 22.955C34.2331 24.7637 33.3994 26.3333 32.3525 27.7358L32.3842 27.6912C31.2869 29.1701 30.0485 30.4517 28.6646 31.5576L28.6229 31.5893C25.7141 33.8818 21.9989 35.2685 17.9597 35.2757H17.9582L17.9626 35.28Z" fill="white"/>
</g>
<defs>
<clipPath id="clip0_26444_7666">
<rect width="36" height="36" fill="white"/>
</clipPath>
</defs>
</svg>
