<svg width="36" height="36" viewBox="0 0 36 36" fill="none" xmlns="http://www.w3.org/2000/svg">
<g clip-path="url(#clip0_26444_7692)">
<path d="M32.4844 26.7891C32.0062 27.0422 31.5141 27.2672 31.0078 27.45C29.3906 28.0547 27.6891 28.3641 25.9594 28.3641C19.3078 28.3641 13.5141 23.7938 13.5141 17.9156C13.5281 16.3125 14.4141 14.8359 15.8203 14.0766C9.80156 14.3297 8.25469 20.6016 8.25469 24.2719C8.25469 34.6641 17.8313 35.7188 19.8984 35.7188C21.0094 35.7188 22.6828 35.3953 23.6953 35.0719L23.8781 35.0156C27.7594 33.6797 31.05 31.0641 33.2437 27.5906C33.4125 27.3234 33.3281 26.9859 33.075 26.8172C32.8922 26.7047 32.6672 26.6906 32.4844 26.7891Z" fill="white"/>
<path opacity="0.35" d="M32.4844 26.7891C32.0062 27.0422 31.5141 27.2672 31.0078 27.45C29.3906 28.0547 27.6891 28.3641 25.9594 28.3641C19.3078 28.3641 13.5141 23.7938 13.5141 17.9156C13.5281 16.3125 14.4141 14.8359 15.8203 14.0766C9.80156 14.3297 8.25469 20.6016 8.25469 24.2719C8.25469 34.6641 17.8313 35.7188 19.8984 35.7188C21.0094 35.7188 22.6828 35.3953 23.6953 35.0719L23.8781 35.0156C27.7594 33.6797 31.05 31.0641 33.2437 27.5906C33.4125 27.3234 33.3281 26.9859 33.075 26.8172C32.8922 26.7047 32.6672 26.6906 32.4844 26.7891Z" fill="white"/>
<path d="M14.8641 33.9469C13.6125 33.1734 12.5297 32.1469 11.6719 30.9516C7.97344 25.8891 9.08437 18.7875 14.1469 15.0891C14.6812 14.7094 15.2297 14.3578 15.8203 14.0766C16.2562 13.8656 17.0016 13.5 18 13.5141C19.4203 13.5281 20.7562 14.2031 21.6141 15.3422C22.1766 16.1016 22.5 17.0156 22.5141 17.9719C22.5141 17.9438 25.9594 6.77814 11.2641 6.77814C5.09062 6.77814 0.0140622 12.6422 0.0140622 17.775C-0.0140628 20.4891 0.576562 23.1891 1.71562 25.65C5.59687 33.9188 15.0469 37.9688 23.7094 35.086C20.7422 36.0141 17.5078 35.6063 14.8641 33.9469Z" fill="white"/>
<g opacity="0.41" filter="url(#filter0_d_26444_7692)">
<path d="M14.8641 33.9469C13.6125 33.1734 12.5297 32.1469 11.6719 30.9516C7.97344 25.8891 9.08437 18.7875 14.1469 15.0891C14.6812 14.7094 15.2297 14.3578 15.8203 14.0766C16.2562 13.8656 17.0016 13.5 18 13.5141C19.4203 13.5281 20.7562 14.2031 21.6141 15.3422C22.1766 16.1016 22.5 17.0156 22.5141 17.9719C22.5141 17.9438 25.9594 6.77814 11.2641 6.77814C5.09062 6.77814 0.0140622 12.6422 0.0140622 17.775C-0.0140628 20.4891 0.576562 23.1891 1.71562 25.65C5.59687 33.9188 15.0469 37.9688 23.7094 35.086C20.7422 36.0141 17.5078 35.6063 14.8641 33.9469Z" fill="white"/>
</g>
<path d="M21.4172 20.9391C21.3047 21.0797 20.9531 21.2906 20.9531 21.7406C20.9531 22.1063 21.1922 22.4578 21.6141 22.7531C23.6391 24.1594 27.45 23.9766 27.4641 23.9766C28.9688 23.9766 30.4313 23.5688 31.725 22.8094C34.3688 21.2625 36 18.4359 36 15.3703C36.0422 12.2203 34.875 10.125 34.4109 9.19688C31.4297 3.36094 24.9891 0 18 0C8.15625 0 0.140625 7.90312 0 17.7469C0.0703125 12.6141 5.175 8.46562 11.25 8.46562C11.7422 8.46562 14.5547 8.50781 17.1562 9.88594C19.4484 11.0953 20.6578 12.5437 21.4875 13.9922C22.3594 15.4969 22.5141 17.3813 22.5141 18.1406C22.5141 18.8859 22.1344 20.0109 21.4172 20.9391Z" fill="white"/>
<g filter="url(#filter1_d_26444_7692)">
<path d="M21.4172 20.9391C21.3047 21.0797 20.9531 21.2906 20.9531 21.7406C20.9531 22.1063 21.1922 22.4578 21.6141 22.7531C23.6391 24.1594 27.45 23.9766 27.4641 23.9766C28.9688 23.9766 30.4313 23.5688 31.725 22.8094C34.3688 21.2625 36 18.4359 36 15.3703C36.0422 12.2203 34.875 10.125 34.4109 9.19688C31.4297 3.36094 24.9891 0 18 0C8.15625 0 0.140625 7.90312 0 17.7469C0.0703125 12.6141 5.175 8.46562 11.25 8.46562C11.7422 8.46562 14.5547 8.50781 17.1562 9.88594C19.4484 11.0953 20.6578 12.5437 21.4875 13.9922C22.3594 15.4969 22.5141 17.3813 22.5141 18.1406C22.5141 18.8859 22.1344 20.0109 21.4172 20.9391Z" fill="white"/>
</g>
</g>
<defs>
<filter id="filter0_d_26444_7692" x="-3.9869" y="6.77814" width="31.6963" height="37.2329" filterUnits="userSpaceOnUse" color-interpolation-filters="sRGB">
<feFlood flood-opacity="0" result="BackgroundImageFix"/>
<feColorMatrix in="SourceAlpha" type="matrix" values="0 0 0 0 0 0 0 0 0 0 0 0 0 0 0 0 0 0 127 0" result="hardAlpha"/>
<feOffset dy="4"/>
<feGaussianBlur stdDeviation="2"/>
<feComposite in2="hardAlpha" operator="out"/>
<feColorMatrix type="matrix" values="0 0 0 0 0 0 0 0 0 0 0 0 0 0 0 0 0 0 0.25 0"/>
<feBlend mode="normal" in2="BackgroundImageFix" result="effect1_dropShadow_26444_7692"/>
<feBlend mode="normal" in="SourceGraphic" in2="effect1_dropShadow_26444_7692" result="shape"/>
</filter>
<filter id="filter1_d_26444_7692" x="-4" y="0" width="44.0011" height="31.9843" filterUnits="userSpaceOnUse" color-interpolation-filters="sRGB">
<feFlood flood-opacity="0" result="BackgroundImageFix"/>
<feColorMatrix in="SourceAlpha" type="matrix" values="0 0 0 0 0 0 0 0 0 0 0 0 0 0 0 0 0 0 127 0" result="hardAlpha"/>
<feOffset dy="4"/>
<feGaussianBlur stdDeviation="2"/>
<feComposite in2="hardAlpha" operator="out"/>
<feColorMatrix type="matrix" values="0 0 0 0 0 0 0 0 0 0 0 0 0 0 0 0 0 0 0.25 0"/>
<feBlend mode="normal" in2="BackgroundImageFix" result="effect1_dropShadow_26444_7692"/>
<feBlend mode="normal" in="SourceGraphic" in2="effect1_dropShadow_26444_7692" result="shape"/>
</filter>
<clipPath id="clip0_26444_7692">
<rect width="36" height="36" fill="white"/>
</clipPath>
</defs>
</svg>
