<svg width="36" height="36" viewBox="0 0 36 36" fill="none" xmlns="http://www.w3.org/2000/svg">
<g clip-path="url(#clip0_26444_7665)">
<path d="M29.9925 4.58099C27.984 3.19649 25.4985 2.36999 22.8195 2.36999C22.806 2.36999 22.7925 2.36999 22.7775 2.36999C22.77 2.36999 22.761 2.36999 22.752 2.36999C20.607 2.36999 18.5895 2.91449 16.8285 3.87299L16.893 3.83999C14.985 4.86749 13.3815 6.21449 12.0945 7.82699L12.0705 7.85849C11.0715 9.10799 10.2585 10.56 9.702 12.135L9.6705 12.2385C9.0945 13.824 8.7405 15.654 8.697 17.562V17.583V18.423C8.742 20.349 9.096 22.1775 9.7095 23.883L9.672 23.763C10.26 25.4415 11.073 26.8935 12.0945 28.173L12.072 28.143C13.3815 29.787 14.985 31.134 16.812 32.1225L16.893 32.163C18.5865 33.087 20.6025 33.63 22.7445 33.63H22.7805H22.779H22.818C25.497 33.63 27.9825 32.8035 30.0345 31.392L29.991 31.4205C28.431 32.8215 26.604 33.9645 24.6 34.761L24.477 34.8045C22.581 35.5635 20.382 36.0045 18.081 36.0045C18.051 36.0045 18.021 36.0045 17.9925 36.0045H17.997C17.609 36.0045 17.321 35.9975 17.133 35.9835C14.6835 35.874 12.399 35.2785 10.338 34.29L10.443 34.335C6.294 32.418 3.0795 29.067 1.3845 24.9315L1.341 24.813C0.490503 22.8015 -0.00449753 20.463 -0.00449753 18.009C-0.00449753 15.4815 0.520502 13.077 1.4655 10.8975L1.4205 11.013C3.2535 6.65849 6.6495 3.26399 10.887 1.47299L11.0025 1.42949C13.0485 0.527991 15.435 0.00299072 17.943 0.00299072H17.9955H18.0525C22.6455 0.0194907 26.832 1.75499 30.0015 4.59899L29.985 4.58399L29.9925 4.58099ZM36 18V18.0915C36 20.697 35.43 23.1705 34.4085 25.392L34.4535 25.284C33.3945 27.615 31.9515 29.595 30.186 31.23L30.174 31.2405C28.908 32.0355 27.3705 32.5065 25.722 32.5065C25.719 32.5065 25.716 32.5065 25.7145 32.5065C23.7855 32.5035 22.0065 31.8705 20.568 30.8025L20.5905 30.819C22.824 29.91 24.6015 28.2675 25.6575 26.1945L25.683 26.139C26.943 23.8785 27.6855 21.1785 27.6855 18.3075C27.6855 18.1995 27.684 18.0915 27.6825 17.985V18.0015C27.684 17.913 27.6855 17.808 27.6855 17.703C27.6855 14.8365 26.9475 12.144 25.6515 9.80249L25.6935 9.88649C24.6135 7.75499 22.8405 6.10649 20.676 5.20949L20.6115 5.18549C22.0245 4.15049 23.796 3.52649 25.7115 3.51749C27.3945 3.52049 28.9635 4.00649 30.288 4.84349L30.252 4.82249C32.016 6.45749 33.444 8.42699 34.4355 10.6365L34.4805 10.749C35.439 12.8565 35.997 15.318 35.997 17.9115V18.006V18.0015L36 18Z" fill="white"/>
</g>
<defs>
<clipPath id="clip0_26444_7665">
<rect width="36" height="36" fill="white"/>
</clipPath>
</defs>
</svg>
