<svg width="36" height="36" viewBox="0 0 36 36" fill="none" xmlns="http://www.w3.org/2000/svg">
<path d="M15.5 32C19.0899 32 22 29.5376 22 26.5C22 23.4624 19.0899 21 15.5 21C11.9101 21 9 23.4624 9 26.5C9 29.5376 11.9101 32 15.5 32Z" fill="white" stroke="white" stroke-linecap="round" stroke-linejoin="round"/>
<path d="M22.0382 28.935C22.0382 28.935 26.5269 28.1114 26.5269 31.875H12.3929C7.75515 31.875 3.99548 28.1153 3.99548 23.4775C3.99548 21.3016 4.81973 19.3159 6.18068 17.8273C8.8131 14.9476 10.0058 13.9316 10.0058 11.5462C10.0058 9.16073 7.04085 7.70302 3.99548 9.55837C6.60443 5.00843 8.68057 4.125 12.9213 4.125C17.162 4.125 19.1498 7.65892 19.1498 10.7511C19.1498 16.8913 9.25193 17.4214 9.25193 26.4387" fill="white"/>
<path d="M22.0382 28.935C22.0382 28.935 26.5269 28.1114 26.5269 31.875H12.3929C7.75515 31.875 3.99548 28.1153 3.99548 23.4775C3.99548 21.3016 4.81973 19.3159 6.18068 17.8273C8.8131 14.9476 10.0058 13.9316 10.0058 11.5462C10.0058 9.16072 7.04085 7.70302 3.99548 9.55837C6.60443 5.00843 8.68058 4.125 12.9213 4.125C17.162 4.125 19.1498 7.65892 19.1498 10.7511C19.1498 16.8913 9.25193 17.4214 9.25193 26.4387" stroke="white" stroke-linecap="round" stroke-linejoin="round"/>
<path d="M22.0382 28.935C22.6174 27.9299 22.9488 26.7639 22.9488 25.5205C22.9488 21.7383 19.8826 18.6721 16.1004 18.6721C13.6924 18.6721 11.5747 19.915 10.3536 21.7941" fill="white"/>
<path d="M22.0382 28.935C22.6174 27.9299 22.9488 26.7639 22.9488 25.5205C22.9488 21.7383 19.8826 18.6721 16.1004 18.6721C13.6924 18.6721 11.5747 19.915 10.3536 21.7941" stroke="white" stroke-linecap="round" stroke-linejoin="round"/>
<path d="M13.606 19.1407C17.5596 16.3612 23.0372 17.4655 26.5269 20.7786C30.5468 20.0718 32.0044 22.5455 32.0044 22.5455C30.2947 22.4119 28.2294 23.0377 26.864 23.5533C25.9843 23.8855 24.9936 23.6578 24.3619 22.9611C21.6675 19.9894 17.5126 17.2717 13.606 19.1407Z" fill="white" stroke="white" stroke-linecap="round" stroke-linejoin="round"/>
<path d="M17.2355 17.68C17.2355 17.68 19.3266 15.5329 23.9648 13.0481C23.7881 10.7953 23.8986 9.9504 25.025 9.24915C27.0128 9.75165 27.4104 12.1204 27.4104 12.1204C31.0768 13.3573 32.5346 18.349 31.1652 19.0558C29.7959 19.7626 25.3597 19.2481 22.6507 18.3205" fill="white"/>
<path d="M17.2355 17.68C17.2355 17.68 19.3266 15.5329 23.9648 13.0481C23.7881 10.7953 23.8986 9.9504 25.025 9.24915C27.0128 9.75165 27.4104 12.1204 27.4104 12.1204C31.0768 13.3573 32.5346 18.349 31.1652 19.0558C29.7959 19.7626 25.3597 19.2481 22.6507 18.3205" stroke="white" stroke-linecap="round" stroke-linejoin="round"/>
<path d="M14.6883 28.4081C15.776 28.4081 16.6577 27.5264 16.6577 26.4387C16.6577 25.351 15.776 24.4693 14.6883 24.4693C13.6006 24.4693 12.7189 25.351 12.7189 26.4387C12.7189 27.5264 13.6006 28.4081 14.6883 28.4081Z" fill="white" stroke="white" stroke-linecap="round" stroke-linejoin="round"/>
</svg>
